<svg width="90" height="37" viewBox="0 0 90 37" fill="none" xmlns="http://www.w3.org/2000/svg">
<g clip-path="url(#clip0_302_266)">
<path fill-rule="evenodd" clip-rule="evenodd" d="M5.34253 5.34246V11.7352L7.39732 9.72603L13.4247 15.7534H15.7535V5.34246H5.34253ZM24.7033 5.34246H31.1416V15.7534H20.685V13.4247L26.4384 7.67123L26.7581 7.3516L24.7033 5.34246ZM31.1416 31.1416H20.685V20.6849H23.0594L29.0868 26.7123L31.1416 24.7032V31.1416ZM5.34253 31.1416V20.6849H15.7535V23.0594L9.72609 29.0868L11.7809 31.1416H5.34253Z" fill="#007658"/>
<path fill-rule="evenodd" clip-rule="evenodd" d="M41.5525 5.25114H45.6164C47.9908 5.25114 49.6347 6.621 49.6347 8.94977C49.6347 11.2785 47.9908 12.7397 44.8402 12.7397H44.0639V15.7078H41.5525V5.25114ZM44.9315 10.8219C46.5297 10.8219 47.0776 10 47.0776 9.0411C47.0776 8.08219 46.621 7.21461 45.2968 7.21461H44.0639V10.8219H44.9315ZM60 15.1142L60.6849 13.3333C61.5758 13.6618 62.5212 13.8168 63.4703 13.79C64.7032 13.79 65.2968 13.4247 65.2968 12.7854C65.2968 11.0959 60.3196 11.5525 60.3196 7.99087C60.3196 5.98173 62.2374 5.11415 64.0639 5.11415C65.1968 5.09835 66.3193 5.3322 67.3516 5.79909L66.621 7.57991C65.8297 7.29348 64.9966 7.13921 64.1552 7.12329C63.105 7.12329 62.7854 7.53425 62.7854 7.99087C62.7854 9.36073 67.8082 9.36073 67.8082 12.6941C67.8082 14.9772 65.6164 15.8447 63.4703 15.8447C61.3242 15.8447 60.7762 15.5708 60 15.1142ZM69.1324 5.25114H71.6438V9.49772H76.073V5.25114H78.5845V15.7078H76.073V11.4155H71.6438V15.7078H69.1324V5.25114ZM86.484 5.25114H83.0593L79.5434 15.7078H82.1461L83.105 12.6484H86.3927L87.3972 15.7078H90L86.484 5.25114ZM83.6986 10.8219L84.7488 6.80365L85.7991 10.8219H83.6986ZM55.936 5.25114H52.5114L48.9954 15.7078H51.5982L52.6027 12.6484H55.8904L56.8493 15.7078H59.452L55.936 5.25114ZM53.1963 10.8219L54.2466 6.80365L55.2968 10.8219H53.1963Z" fill="#007658"/>
<path fill-rule="evenodd" clip-rule="evenodd" d="M41.5525 20.7306H44.0639V28.4931H48.3105V30.9589H41.5525V20.7306ZM58.9498 22.2831C58.2192 22.2831 57.9909 22.3288 57.9909 22.968V23.653H60.6849V25.5251H57.9909V30.9589H55.3425V25.5251H54.0639V23.653H55.3425V22.9224C55.3425 20.0913 57.3059 20.1826 58.9954 20.1826C59.7044 20.184 60.4103 20.2761 61.0959 20.4566L60.8219 22.4658C60.8219 22.4658 59.5434 22.2831 58.9498 22.2831ZM50.0913 22.5571H52.6027V20.7306H50.0913V22.5571ZM50.0913 23.0594H52.6027V30.9589H50.0913V23.0594ZM62.0548 26.895C62.0548 23.6073 63.79 22.5114 66.2557 22.5114C68.7215 22.5114 69.7717 24.2009 69.7717 26.6667V27.5342H64.5205C64.5205 28.8128 65.5251 29.0868 66.8036 29.0868C67.5888 29.0306 68.3678 28.9084 69.1324 28.7215L69.4977 30.6393C68.5017 30.9164 67.4722 31.0547 66.4383 31.0502C63.7899 31.0502 62.0548 30.137 62.0548 26.895V26.895ZM67.2603 25.9361C67.2603 24.9772 66.8493 24.2922 66.0274 24.2922C65.2055 24.2922 64.6575 24.8858 64.6119 25.9361H67.2603ZM29.0868 25.6164L21.6895 18.2192L23.379 16.5753H31.9178V13.6986L36.484 18.2192L29.0868 25.6164ZM18.2192 0L25.6164 7.3516L18.2192 14.7489L16.5753 13.0594V4.52055H13.6986L18.2192 0ZM0 18.2192L7.39726 10.8676L14.7489 18.2192L13.105 19.9087H4.52055V22.7854L0 18.2192ZM18.2192 36.4384L10.8676 29.0868L18.2192 21.6895L19.9087 23.379V31.9178H22.7854L18.2192 36.4384Z" fill="#00377D"/>
</g>
<defs>
<clipPath id="clip0_302_266">
<rect width="90" height="36.484" fill="white"/>
</clipPath>
</defs>
</svg>
